<svg xmlns="http://www.w3.org/2000/svg" viewBox="0 0 1500 440" role="img" aria-label="造域 FORMVERSE 品牌组合"><defs>
    <linearGradient id="g" x1="0" y1="0" x2="1" y2="1"><stop stop-color="#2458F5"/><stop offset="1" stop-color="#20C7F4"/></linearGradient>
    <linearGradient id="g2" x1="1" y1="0" x2="0" y2="1"><stop stop-color="#7461FF"/><stop offset="1" stop-color="#20C7F4"/></linearGradient>
  </defs>
  <g transform="translate(34 34) scale(.72)"><path d="M238 56c-77 7-143 54-175 124l91 36c17-33 48-57 84-65Z" fill="url(#g)"/>
      <path d="M456 242c-7-77-54-143-124-175l-36 91c33 17 57 48 65 84Z" fill="url(#g2)"/>
      <path d="M274 456c77-7 143-54 175-124l-91-36c-17 33-48 57-84 65Z" fill="url(#g)" opacity=".88"/>
      <path d="M56 274c7 77 54 143 124 175l36-91c-33-17-57-48-65-84Z" fill="url(#g2)" opacity=".88"/>
      <path d="m256 167 77 44v90l-77 44-77-44v-90Z" fill="#7461FF"/>
      <path d="m256 190 56 32-56 33-56-33Zm-56 56 45 26v51l-45-26Zm112 0v51l-45 26v-51Z" fill="#fff"/></g>
  <g transform="translate(465 0)">
    <text x="0" y="205" font-family="PingFang SC, Microsoft YaHei, sans-serif" font-size="112" font-weight="750" letter-spacing="5" fill="#14203B">造域</text>
    <text x="5" y="282" font-family="Inter, Arial, sans-serif" font-size="38" font-weight="800" letter-spacing="12" fill="#2458F5">FORMVERSE</text>
    <path d="M5 320H920" stroke="#D8E4F6" stroke-width="3"/>
    <text x="5" y="367" font-family="PingFang SC, Microsoft YaHei, sans-serif" font-size="27" letter-spacing="2" fill="#61708D">从一个形体到创作宇宙</text>
  </g></svg>