<svg xmlns="http://www.w3.org/2000/svg" viewBox="0 0 512 512" role="img" aria-label="云维工场 NIMBIFORGE 3D 打印 Logo"><defs><linearGradient id="g" x1="0" y1="0" x2="1" y2="1"><stop stop-color="#0878F9"/><stop offset="1" stop-color="#22C8F3"/></linearGradient><linearGradient id="g2" x1="1" y1="0" x2="0" y2="1"><stop stop-color="#545CFF"/><stop offset="1" stop-color="#22C8F3"/></linearGradient></defs><g stroke-linejoin="round" stroke-linecap="round"><path d="M58 103c90 89 246 112 367 32 11-7 21-15 31-23-22 82-91 139-178 150-99 12-184-35-220-159Z" fill="url(#g)"/>
      <path d="M224 224h64l-13 54-19 20-19-20Z" fill="#545CFF"/>
      <path d="M196 322h120l-14 25H210Zm-19 45h158l-14 25H191Zm-18 45h194l-16 27H175Z" fill="url(#g2)"/></g></svg>