<svg xmlns="http://www.w3.org/2000/svg" viewBox="0 0 1500 440" role="img" aria-label="层光 LAYLUX 品牌组合"><defs><linearGradient id="g" x1="0" y1="0" x2="1" y2="1"><stop stop-color="#0D78F6"/><stop offset="1" stop-color="#2DCBF1"/></linearGradient><linearGradient id="g2" x1="1" y1="0" x2="0" y2="1"><stop stop-color="#5D61F6"/><stop offset="1" stop-color="#2DCBF1"/></linearGradient></defs><g transform="translate(28 28) scale(.74)"><path d="M58 103c90 89 246 112 367 32 11-7 21-15 31-23-22 82-91 139-178 150-99 12-184-35-220-159Z" fill="url(#g)"/>
      <path d="M218 223h76l-15 54-23 20-23-20Z" fill="#5D61F6"/>
      <path d="M211 318h90" stroke="url(#g2)" stroke-width="24" stroke-linecap="round"/>
      <path d="M175 365h162" stroke="url(#g2)" stroke-width="27" stroke-linecap="round" opacity=".9"/>
      <path d="M137 416h238" stroke="url(#g2)" stroke-width="31" stroke-linecap="round" opacity=".78"/></g><g transform="translate(470 0)"><text x="0" y="198" font-family="PingFang SC, Microsoft YaHei, sans-serif" font-size="112" font-weight="750" letter-spacing="5" fill="#11213F">层光</text><text x="4" y="278" font-family="Inter, Arial, sans-serif" font-size="38" font-weight="800" letter-spacing="12" fill="#0D78F6">LAYLUX</text><path d="M4 316H920" stroke="#D8E5F4" stroke-width="3"/><text x="4" y="365" font-family="PingFang SC, Microsoft YaHei, sans-serif" font-size="27" letter-spacing="2" fill="#61718E">层层可见 · 快速预览</text></g></svg>