<svg xmlns="http://www.w3.org/2000/svg" viewBox="0 0 512 512" role="img" aria-label="造域 FORMVERSE 3D 打印 Logo"><defs><linearGradient id="g" x1="0" y1="0" x2="1" y2="1"><stop stop-color="#1870F7"/><stop offset="1" stop-color="#28C7F2"/></linearGradient><linearGradient id="g2" x1="1" y1="0" x2="0" y2="1"><stop stop-color="#6E5DF7"/><stop offset="1" stop-color="#28C7F2"/></linearGradient></defs><g stroke-linejoin="round" stroke-linecap="round"><path d="M58 103c90 89 246 112 367 32 11-7 21-15 31-23-22 82-91 139-178 150-99 12-184-35-220-159Z" fill="url(#g)"/>
      <path d="m256 237 70 40-70 41-70-41Z" fill="url(#g2)"/>
      <path d="m186 277 70 41v83l-70-41Zm140 0-70 41v83l70-41Z" fill="url(#g)"/>
      <path d="M141 432h230" stroke="#6E5DF7" stroke-width="31" stroke-linecap="round"/>
      <path d="M244 198h24v46h-24Z" fill="#6E5DF7"/></g></svg>