<svg xmlns="http://www.w3.org/2000/svg" viewBox="0 0 2000 1880" role="img"><defs><linearGradient id="hero" x1="0" y1="0" x2="1" y2="0"><stop stop-color="#087AF7"/><stop offset=".53" stop-color="#25CBF2"/><stop offset="1" stop-color="#625CFA"/></linearGradient><radialGradient id="bg" cx="50%" cy="0" r="90%"><stop stop-color="#E5F6FF"/><stop offset="1" stop-color="#F8FBFF"/></radialGradient></defs><rect width="2000" height="1880" fill="url(#bg)"/><rect width="2000" height="14" fill="url(#hero)"/><path d="M1590 0c80 44 128 110 146 198 20 97 68 151 144 189" fill="none" stroke="#35C9F4" stroke-width="128" opacity=".06"/><text x="70" y="88" font-family="Inter, Arial, sans-serif" font-size="18" font-weight="800" letter-spacing="5" fill="#1171F6">AI 3D BRAND SYSTEM · ROUND 04</text><text x="70" y="151" font-family="PingFang SC, Microsoft YaHei, sans-serif" font-size="44" font-weight="760" letter-spacing="2" fill="#11213F">更简洁、更像品牌，也更像 3D 打印</text><text x="70" y="197" font-family="PingFang SC, Microsoft YaHei, sans-serif" font-size="19" fill="#60718E">延续参考图的上扬弧角与蓝色流线，将喷嘴、打印层、立方模型和打印平台融入同一轮廓。</text><text x="1930" y="151" text-anchor="end" font-family="Inter, Arial, sans-serif" font-size="15" font-weight="700" letter-spacing="3" fill="#8090A9">CURVE × NOZZLE × LAYER × BUILD PLATE</text><g transform="translate(70 248)"><defs><linearGradient id="v4g0" x1="0" y1="0" x2="1" y2="1"><stop stop-color="#0878F9"/><stop offset="1" stop-color="#22C8F3"/></linearGradient><linearGradient id="v4g02" x1="1" y1="0" x2="0" y2="1"><stop stop-color="#545CFF"/><stop offset="1" stop-color="#22C8F3"/></linearGradient></defs><rect width="900" height="276" rx="26" fill="#fff" stroke="#DDE8F6" stroke-width="2"/><path d="M1 26Q1 1 26 1H874Q899 1 899 26" fill="none" stroke="url(#v4g0)" stroke-width="6"/><g transform="translate(44 38) scale(.36)"><path d="M58 103c90 89 246 112 367 32 11-7 21-15 31-23-22 82-91 139-178 150-99 12-184-35-220-159Z" fill="url(#v4g0)"/>
      <path d="M224 224h64l-13 54-19 20-19-20Z" fill="#545CFF"/>
      <path d="M196 322h120l-14 25H210Zm-19 45h158l-14 25H191Zm-18 45h194l-16 27H175Z" fill="url(#v4g02)"/></g><g transform="translate(270 0)"><rect x="0" y="29" width="82" height="30" rx="15" fill="#E7F1FF"/><text x="41" y="50" text-anchor="middle" font-family="PingFang SC, Microsoft YaHei, sans-serif" font-size="14" font-weight="700" fill="#1270F6">四字名</text><text x="0" y="118" font-family="PingFang SC, Microsoft YaHei, sans-serif" font-size="46" font-weight="760" letter-spacing="3" fill="#11213F">云维工场</text><text x="2" y="159" font-family="Inter, Arial, sans-serif" font-size="18" font-weight="800" letter-spacing="5" fill="#0878F9">NIMBIFORGE</text><text x="2" y="202" font-family="PingFang SC, Microsoft YaHei, sans-serif" font-size="18" fill="#5D6E8B">云端生成 · 分层成形</text><text x="2" y="237" font-family="PingFang SC, Microsoft YaHei, sans-serif" font-size="14" fill="#8A98B1">弧角主骨架 · 喷嘴 / 层纹 / 打印平台 · 极简负空间</text></g><g transform="translate(798 178) scale(.112)"><path d="M58 103c90 89 246 112 367 32 11-7 21-15 31-23-22 82-91 139-178 150-99 12-184-35-220-159Z" fill="#112A5C"/>
      <path d="M224 224h64l-13 54-19 20-19-20Z" fill="#112A5C"/>
      <path d="M196 322h120l-14 25H210Zm-19 45h158l-14 25H191Zm-18 45h194l-16 27H175Z" fill="#112A5C"/></g><text x="842" y="251" text-anchor="middle" font-family="Inter, Arial, sans-serif" font-size="10" font-weight="700" letter-spacing="2" fill="#A0ADC0">MONO</text></g><g transform="translate(1034 248)"><defs><linearGradient id="v4g1" x1="0" y1="0" x2="1" y2="1"><stop stop-color="#126FF5"/><stop offset="1" stop-color="#2BCBF3"/></linearGradient><linearGradient id="v4g12" x1="1" y1="0" x2="0" y2="1"><stop stop-color="#6A5CFF"/><stop offset="1" stop-color="#2BCBF3"/></linearGradient></defs><rect width="900" height="276" rx="26" fill="#fff" stroke="#DDE8F6" stroke-width="2"/><path d="M1 26Q1 1 26 1H874Q899 1 899 26" fill="none" stroke="url(#v4g1)" stroke-width="6"/><g transform="translate(44 38) scale(.36)"><path d="M58 104c55 55 127 86 202 89l-12 69c-90-1-158-50-190-158Z" fill="url(#v4g1)"/><path d="M454 112c-42 48-99 76-164 81l-16 69c86-7 153-59 180-150Z" fill="url(#v4g12)"/>
      <path d="m256 198 35 40-35 48-35-48Z" fill="#6A5CFF"/>
      <path d="m256 301 74 43-74 43-74-43Zm-74 43v72l74 43v-72Zm148 0v72l-74 43v-72Z" fill="none" stroke="url(#v4g1)" stroke-width="22" stroke-linejoin="round"/></g><g transform="translate(270 0)"><rect x="0" y="29" width="82" height="30" rx="15" fill="#E7F1FF"/><text x="41" y="50" text-anchor="middle" font-family="PingFang SC, Microsoft YaHei, sans-serif" font-size="14" font-weight="700" fill="#1270F6">四字名</text><text x="0" y="118" font-family="PingFang SC, Microsoft YaHei, sans-serif" font-size="46" font-weight="760" letter-spacing="3" fill="#11213F">灵犀造物</text><text x="2" y="159" font-family="Inter, Arial, sans-serif" font-size="18" font-weight="800" letter-spacing="5" fill="#126FF5">SYNFORM</text><text x="2" y="202" font-family="PingFang SC, Microsoft YaHei, sans-serif" font-size="18" fill="#5D6E8B">理解想法 · 打印成形</text><text x="2" y="237" font-family="PingFang SC, Microsoft YaHei, sans-serif" font-size="14" fill="#8A98B1">弧角主骨架 · 喷嘴 / 层纹 / 打印平台 · 极简负空间</text></g><g transform="translate(798 178) scale(.112)"><path d="M58 104c55 55 127 86 202 89l-12 69c-90-1-158-50-190-158Z" fill="#112A5C"/><path d="M454 112c-42 48-99 76-164 81l-16 69c86-7 153-59 180-150Z" fill="#112A5C"/>
      <path d="m256 198 35 40-35 48-35-48Z" fill="#112A5C"/>
      <path d="m256 301 74 43-74 43-74-43Zm-74 43v72l74 43v-72Zm148 0v72l-74 43v-72Z" fill="none" stroke="#112A5C" stroke-width="22" stroke-linejoin="round"/></g><text x="842" y="251" text-anchor="middle" font-family="Inter, Arial, sans-serif" font-size="10" font-weight="700" letter-spacing="2" fill="#A0ADC0">MONO</text></g><g transform="translate(70 558)"><defs><linearGradient id="v4g2" x1="0" y1="0" x2="1" y2="1"><stop stop-color="#087DF7"/><stop offset="1" stop-color="#19BFEF"/></linearGradient><linearGradient id="v4g22" x1="1" y1="0" x2="0" y2="1"><stop stop-color="#5965FF"/><stop offset="1" stop-color="#19BFEF"/></linearGradient></defs><rect width="900" height="276" rx="26" fill="#fff" stroke="#DDE8F6" stroke-width="2"/><path d="M1 26Q1 1 26 1H874Q899 1 899 26" fill="none" stroke="url(#v4g2)" stroke-width="6"/><g transform="translate(44 38) scale(.36)"><path d="M58 103c90 89 246 112 367 32 11-7 21-15 31-23-22 82-91 139-178 150-99 12-184-35-220-159Z" fill="url(#v4g2)"/>
      <path d="M237 218h38l18 42-37 32-37-32Z" fill="#5965FF"/>
      <path d="M185 331h142M168 374h176M151 417h210" fill="none" stroke="url(#v4g22)" stroke-width="23" stroke-linecap="round"/>
      <path d="m374 227 10 26 27 10-27 10-10 27-10-27-27-10 27-10Z" fill="url(#v4g22)"/></g><g transform="translate(270 0)"><rect x="0" y="29" width="82" height="30" rx="15" fill="#E7F1FF"/><text x="41" y="50" text-anchor="middle" font-family="PingFang SC, Microsoft YaHei, sans-serif" font-size="14" font-weight="700" fill="#1270F6">四字名</text><text x="0" y="118" font-family="PingFang SC, Microsoft YaHei, sans-serif" font-size="46" font-weight="760" letter-spacing="3" fill="#11213F">星模引擎</text><text x="2" y="159" font-family="Inter, Arial, sans-serif" font-size="18" font-weight="800" letter-spacing="5" fill="#087DF7">NOVAMESH</text><text x="2" y="202" font-family="PingFang SC, Microsoft YaHei, sans-serif" font-size="18" fill="#5D6E8B">模型生成 · 连续迭代</text><text x="2" y="237" font-family="PingFang SC, Microsoft YaHei, sans-serif" font-size="14" fill="#8A98B1">弧角主骨架 · 喷嘴 / 层纹 / 打印平台 · 极简负空间</text></g><g transform="translate(798 178) scale(.112)"><path d="M58 103c90 89 246 112 367 32 11-7 21-15 31-23-22 82-91 139-178 150-99 12-184-35-220-159Z" fill="#112A5C"/>
      <path d="M237 218h38l18 42-37 32-37-32Z" fill="#112A5C"/>
      <path d="M185 331h142M168 374h176M151 417h210" fill="none" stroke="#112A5C" stroke-width="23" stroke-linecap="round"/>
      <path d="m374 227 10 26 27 10-27 10-10 27-10-27-27-10 27-10Z" fill="#112A5C"/></g><text x="842" y="251" text-anchor="middle" font-family="Inter, Arial, sans-serif" font-size="10" font-weight="700" letter-spacing="2" fill="#A0ADC0">MONO</text></g><g transform="translate(1034 558)"><defs><linearGradient id="v4g3" x1="0" y1="0" x2="1" y2="1"><stop stop-color="#106EF3"/><stop offset="1" stop-color="#30C7F2"/></linearGradient><linearGradient id="v4g32" x1="1" y1="0" x2="0" y2="1"><stop stop-color="#4D65F6"/><stop offset="1" stop-color="#30C7F2"/></linearGradient></defs><rect width="900" height="276" rx="26" fill="#fff" stroke="#DDE8F6" stroke-width="2"/><path d="M1 26Q1 1 26 1H874Q899 1 899 26" fill="none" stroke="url(#v4g3)" stroke-width="6"/><g transform="translate(44 38) scale(.36)"><path d="M58 103c90 89 246 112 367 32 11-7 21-15 31-23-22 82-91 139-178 150-99 12-184-35-220-159Z" fill="url(#v4g3)"/>
      <path d="M118 224h74v131c0 29 19 48 48 48h32c29 0 48-19 48-48V256l74-38v142c0 72-49 119-122 119h-32c-73 0-122-47-122-119Z" fill="url(#v4g32)"/>
      <path d="M225 225h62l-12 48-19 21-19-21Z" fill="#4D65F6"/>
      <path d="M218 339h76" stroke="#fff" stroke-width="20" stroke-linecap="round"/></g><g transform="translate(270 0)"><rect x="0" y="29" width="82" height="30" rx="15" fill="#E7F1FF"/><text x="41" y="50" text-anchor="middle" font-family="PingFang SC, Microsoft YaHei, sans-serif" font-size="14" font-weight="700" fill="#1270F6">四字名</text><text x="0" y="118" font-family="PingFang SC, Microsoft YaHei, sans-serif" font-size="46" font-weight="760" letter-spacing="3" fill="#11213F">智构方舟</text><text x="2" y="159" font-family="Inter, Arial, sans-serif" font-size="18" font-weight="800" letter-spacing="5" fill="#106EF3">FORMARC AI</text><text x="2" y="202" font-family="PingFang SC, Microsoft YaHei, sans-serif" font-size="18" fill="#5D6E8B">检测切片 · 稳定打印</text><text x="2" y="237" font-family="PingFang SC, Microsoft YaHei, sans-serif" font-size="14" fill="#8A98B1">弧角主骨架 · 喷嘴 / 层纹 / 打印平台 · 极简负空间</text></g><g transform="translate(798 178) scale(.112)"><path d="M58 103c90 89 246 112 367 32 11-7 21-15 31-23-22 82-91 139-178 150-99 12-184-35-220-159Z" fill="#112A5C"/>
      <path d="M118 224h74v131c0 29 19 48 48 48h32c29 0 48-19 48-48V256l74-38v142c0 72-49 119-122 119h-32c-73 0-122-47-122-119Z" fill="#112A5C"/>
      <path d="M225 225h62l-12 48-19 21-19-21Z" fill="#112A5C"/>
      <path d="M218 339h76" stroke="#fff" stroke-width="20" stroke-linecap="round"/></g><text x="842" y="251" text-anchor="middle" font-family="Inter, Arial, sans-serif" font-size="10" font-weight="700" letter-spacing="2" fill="#A0ADC0">MONO</text></g><g transform="translate(70 868)"><defs><linearGradient id="v4g4" x1="0" y1="0" x2="1" y2="1"><stop stop-color="#2262F5"/><stop offset="1" stop-color="#29C7F2"/></linearGradient><linearGradient id="v4g42" x1="1" y1="0" x2="0" y2="1"><stop stop-color="#705BFF"/><stop offset="1" stop-color="#29C7F2"/></linearGradient></defs><rect width="900" height="276" rx="26" fill="#fff" stroke="#DDE8F6" stroke-width="2"/><path d="M1 26Q1 1 26 1H874Q899 1 899 26" fill="none" stroke="url(#v4g4)" stroke-width="6"/><g transform="translate(44 38) scale(.36)"><path d="M58 103c90 89 246 112 367 32 11-7 21-15 31-23-22 82-91 139-178 150-99 12-184-35-220-159Z" fill="url(#v4g4)"/>
      <path d="m256 230 92 53-92 53-92-53Z" fill="url(#v4g42)"/>
      <path d="m164 283 92 53v118l-92-53Z" fill="url(#v4g4)"/>
      <path d="m348 283-92 53v118l92-53Z" fill="#705BFF"/>
      <path d="m256 268 28 16-28 16-28-16Z" fill="#fff" opacity=".92"/></g><g transform="translate(270 0)"><rect x="0" y="29" width="82" height="30" rx="15" fill="#E7F1FF"/><text x="41" y="50" text-anchor="middle" font-family="PingFang SC, Microsoft YaHei, sans-serif" font-size="14" font-weight="700" fill="#1270F6">四字名</text><text x="0" y="118" font-family="PingFang SC, Microsoft YaHei, sans-serif" font-size="46" font-weight="760" letter-spacing="3" fill="#11213F">维境智造</text><text x="2" y="159" font-family="Inter, Arial, sans-serif" font-size="18" font-weight="800" letter-spacing="5" fill="#2262F5">DIMENOVA</text><text x="2" y="202" font-family="PingFang SC, Microsoft YaHei, sans-serif" font-size="18" fill="#5D6E8B">打开维度 · 智能制造</text><text x="2" y="237" font-family="PingFang SC, Microsoft YaHei, sans-serif" font-size="14" fill="#8A98B1">弧角主骨架 · 喷嘴 / 层纹 / 打印平台 · 极简负空间</text></g><g transform="translate(798 178) scale(.112)"><path d="M58 103c90 89 246 112 367 32 11-7 21-15 31-23-22 82-91 139-178 150-99 12-184-35-220-159Z" fill="#112A5C"/>
      <path d="m256 230 92 53-92 53-92-53Z" fill="#112A5C"/>
      <path d="m164 283 92 53v118l-92-53Z" fill="#112A5C"/>
      <path d="m348 283-92 53v118l92-53Z" fill="#112A5C"/>
      <path d="m256 268 28 16-28 16-28-16Z" fill="#fff" opacity=".92"/></g><text x="842" y="251" text-anchor="middle" font-family="Inter, Arial, sans-serif" font-size="10" font-weight="700" letter-spacing="2" fill="#A0ADC0">MONO</text></g><g transform="translate(1034 868)"><defs><linearGradient id="v4g5" x1="0" y1="0" x2="1" y2="1"><stop stop-color="#0782F6"/><stop offset="1" stop-color="#22C9EE"/></linearGradient><linearGradient id="v4g52" x1="1" y1="0" x2="0" y2="1"><stop stop-color="#4768F7"/><stop offset="1" stop-color="#22C9EE"/></linearGradient></defs><rect width="900" height="276" rx="26" fill="#fff" stroke="#DDE8F6" stroke-width="2"/><path d="M1 26Q1 1 26 1H874Q899 1 899 26" fill="none" stroke="url(#v4g5)" stroke-width="6"/><g transform="translate(44 38) scale(.36)"><path d="M58 103c90 89 246 112 367 32 11-7 21-15 31-23-22 82-91 139-178 150-99 12-184-35-220-159Z" fill="url(#v4g5)"/>
      <path d="M112 225h73v132c0 31 18 49 50 49h42c32 0 50-18 50-49v-95l73-40v145c0 68-48 112-123 112h-42c-75 0-123-44-123-112Z" fill="url(#v4g52)"/>
      <path d="M244 200h24v121h-24Z" fill="#4768F7"/>
      <path d="m222 315 34 38 34-38Z" fill="#4768F7"/>
      <path d="M210 376h92" stroke="#fff" stroke-width="19" stroke-linecap="round"/></g><g transform="translate(270 0)"><rect x="0" y="29" width="82" height="30" rx="15" fill="#EEEAFE"/><text x="41" y="50" text-anchor="middle" font-family="PingFang SC, Microsoft YaHei, sans-serif" font-size="14" font-weight="700" fill="#6759E7">两字名</text><text x="0" y="118" font-family="PingFang SC, Microsoft YaHei, sans-serif" font-size="46" font-weight="760" letter-spacing="3" fill="#11213F">云铸</text><text x="2" y="159" font-family="Inter, Arial, sans-serif" font-size="18" font-weight="800" letter-spacing="5" fill="#0782F6">NIMCAST</text><text x="2" y="202" font-family="PingFang SC, Microsoft YaHei, sans-serif" font-size="18" fill="#5D6E8B">云端切片 · 一键铸形</text><text x="2" y="237" font-family="PingFang SC, Microsoft YaHei, sans-serif" font-size="14" fill="#8A98B1">弧角主骨架 · 喷嘴 / 层纹 / 打印平台 · 极简负空间</text></g><g transform="translate(798 178) scale(.112)"><path d="M58 103c90 89 246 112 367 32 11-7 21-15 31-23-22 82-91 139-178 150-99 12-184-35-220-159Z" fill="#112A5C"/>
      <path d="M112 225h73v132c0 31 18 49 50 49h42c32 0 50-18 50-49v-95l73-40v145c0 68-48 112-123 112h-42c-75 0-123-44-123-112Z" fill="#112A5C"/>
      <path d="M244 200h24v121h-24Z" fill="#112A5C"/>
      <path d="m222 315 34 38 34-38Z" fill="#112A5C"/>
      <path d="M210 376h92" stroke="#fff" stroke-width="19" stroke-linecap="round"/></g><text x="842" y="251" text-anchor="middle" font-family="Inter, Arial, sans-serif" font-size="10" font-weight="700" letter-spacing="2" fill="#A0ADC0">MONO</text></g><g transform="translate(70 1178)"><defs><linearGradient id="v4g6" x1="0" y1="0" x2="1" y2="1"><stop stop-color="#1B70F7"/><stop offset="1" stop-color="#2CC9F1"/></linearGradient><linearGradient id="v4g62" x1="1" y1="0" x2="0" y2="1"><stop stop-color="#675DFF"/><stop offset="1" stop-color="#2CC9F1"/></linearGradient></defs><rect width="900" height="276" rx="26" fill="#fff" stroke="#DDE8F6" stroke-width="2"/><path d="M1 26Q1 1 26 1H874Q899 1 899 26" fill="none" stroke="url(#v4g6)" stroke-width="6"/><g transform="translate(44 38) scale(.36)"><path d="M59 111c88 86 235 108 352 32 18-12 34-25 49-40-25 93-107 154-203 159-90 4-163-39-198-151Z" fill="url(#v4g6)"/>
      <path d="M129 244 228 445h61l91-183" fill="none" stroke="url(#v4g62)" stroke-width="46" stroke-linecap="round" stroke-linejoin="round"/>
      <path d="M289 445c57 0 101-13 132-39" fill="none" stroke="#675DFF" stroke-width="22" stroke-linecap="round"/>
      <circle cx="432" cy="396" r="28" fill="#675DFF"/><circle cx="432" cy="396" r="10" fill="#fff"/></g><g transform="translate(270 0)"><rect x="0" y="29" width="82" height="30" rx="15" fill="#EEEAFE"/><text x="41" y="50" text-anchor="middle" font-family="PingFang SC, Microsoft YaHei, sans-serif" font-size="14" font-weight="700" fill="#6759E7">两字名</text><text x="0" y="118" font-family="PingFang SC, Microsoft YaHei, sans-serif" font-size="46" font-weight="760" letter-spacing="3" fill="#11213F">维迹</text><text x="2" y="159" font-family="Inter, Arial, sans-serif" font-size="18" font-weight="800" letter-spacing="5" fill="#1B70F7">VETRACE</text><text x="2" y="202" font-family="PingFang SC, Microsoft YaHei, sans-serif" font-size="18" fill="#5D6E8B">路径可控 · 精准打印</text><text x="2" y="237" font-family="PingFang SC, Microsoft YaHei, sans-serif" font-size="14" fill="#8A98B1">弧角主骨架 · 喷嘴 / 层纹 / 打印平台 · 极简负空间</text></g><g transform="translate(798 178) scale(.112)"><path d="M59 111c88 86 235 108 352 32 18-12 34-25 49-40-25 93-107 154-203 159-90 4-163-39-198-151Z" fill="#112A5C"/>
      <path d="M129 244 228 445h61l91-183" fill="none" stroke="#112A5C" stroke-width="46" stroke-linecap="round" stroke-linejoin="round"/>
      <path d="M289 445c57 0 101-13 132-39" fill="none" stroke="#112A5C" stroke-width="22" stroke-linecap="round"/>
      <circle cx="432" cy="396" r="28" fill="#112A5C"/><circle cx="432" cy="396" r="10" fill="#fff"/></g><text x="842" y="251" text-anchor="middle" font-family="Inter, Arial, sans-serif" font-size="10" font-weight="700" letter-spacing="2" fill="#A0ADC0">MONO</text></g><g transform="translate(1034 1178)"><defs><linearGradient id="v4g7" x1="0" y1="0" x2="1" y2="1"><stop stop-color="#315EF5"/><stop offset="1" stop-color="#2AC7F2"/></linearGradient><linearGradient id="v4g72" x1="1" y1="0" x2="0" y2="1"><stop stop-color="#805EFF"/><stop offset="1" stop-color="#2AC7F2"/></linearGradient></defs><rect width="900" height="276" rx="26" fill="#fff" stroke="#DDE8F6" stroke-width="2"/><path d="M1 26Q1 1 26 1H874Q899 1 899 26" fill="none" stroke="url(#v4g7)" stroke-width="6"/><g transform="translate(44 38) scale(.36)"><path d="M58 103c90 89 246 112 367 32 11-7 21-15 31-23-22 82-91 139-178 150-99 12-184-35-220-159Z" fill="url(#v4g7)"/>
      <path d="m256 197 13 33 34 13-34 13-13 34-13-34-34-13 34-13Z" fill="#805EFF"/>
      <path d="M116 305v139h62v-80l78 79 78-79v80h62V305l-140 92Z" fill="url(#v4g72)"/>
      <path d="m223 282 33 38 33-38-11-42h-44Z" fill="url(#v4g7)"/></g><g transform="translate(270 0)"><rect x="0" y="29" width="82" height="30" rx="15" fill="#EEEAFE"/><text x="41" y="50" text-anchor="middle" font-family="PingFang SC, Microsoft YaHei, sans-serif" font-size="14" font-weight="700" fill="#6759E7">两字名</text><text x="0" y="118" font-family="PingFang SC, Microsoft YaHei, sans-serif" font-size="46" font-weight="760" letter-spacing="3" fill="#11213F">模灵</text><text x="2" y="159" font-family="Inter, Arial, sans-serif" font-size="18" font-weight="800" letter-spacing="5" fill="#315EF5">MODELIA</text><text x="2" y="202" font-family="PingFang SC, Microsoft YaHei, sans-serif" font-size="18" fill="#5D6E8B">AI 灵感 · 模型成真</text><text x="2" y="237" font-family="PingFang SC, Microsoft YaHei, sans-serif" font-size="14" fill="#8A98B1">弧角主骨架 · 喷嘴 / 层纹 / 打印平台 · 极简负空间</text></g><g transform="translate(798 178) scale(.112)"><path d="M58 103c90 89 246 112 367 32 11-7 21-15 31-23-22 82-91 139-178 150-99 12-184-35-220-159Z" fill="#112A5C"/>
      <path d="m256 197 13 33 34 13-34 13-13 34-13-34-34-13 34-13Z" fill="#112A5C"/>
      <path d="M116 305v139h62v-80l78 79 78-79v80h62V305l-140 92Z" fill="#112A5C"/>
      <path d="m223 282 33 38 33-38-11-42h-44Z" fill="#112A5C"/></g><text x="842" y="251" text-anchor="middle" font-family="Inter, Arial, sans-serif" font-size="10" font-weight="700" letter-spacing="2" fill="#A0ADC0">MONO</text></g><g transform="translate(70 1488)"><defs><linearGradient id="v4g8" x1="0" y1="0" x2="1" y2="1"><stop stop-color="#0D78F6"/><stop offset="1" stop-color="#2DCBF1"/></linearGradient><linearGradient id="v4g82" x1="1" y1="0" x2="0" y2="1"><stop stop-color="#5D61F6"/><stop offset="1" stop-color="#2DCBF1"/></linearGradient></defs><rect width="900" height="276" rx="26" fill="#fff" stroke="#DDE8F6" stroke-width="2"/><path d="M1 26Q1 1 26 1H874Q899 1 899 26" fill="none" stroke="url(#v4g8)" stroke-width="6"/><g transform="translate(44 38) scale(.36)"><path d="M58 103c90 89 246 112 367 32 11-7 21-15 31-23-22 82-91 139-178 150-99 12-184-35-220-159Z" fill="url(#v4g8)"/>
      <path d="M218 223h76l-15 54-23 20-23-20Z" fill="#5D61F6"/>
      <path d="M211 318h90" stroke="url(#v4g82)" stroke-width="24" stroke-linecap="round"/>
      <path d="M175 365h162" stroke="url(#v4g82)" stroke-width="27" stroke-linecap="round" opacity=".9"/>
      <path d="M137 416h238" stroke="url(#v4g82)" stroke-width="31" stroke-linecap="round" opacity=".78"/></g><g transform="translate(270 0)"><rect x="0" y="29" width="82" height="30" rx="15" fill="#EEEAFE"/><text x="41" y="50" text-anchor="middle" font-family="PingFang SC, Microsoft YaHei, sans-serif" font-size="14" font-weight="700" fill="#6759E7">两字名</text><text x="0" y="118" font-family="PingFang SC, Microsoft YaHei, sans-serif" font-size="46" font-weight="760" letter-spacing="3" fill="#11213F">层光</text><text x="2" y="159" font-family="Inter, Arial, sans-serif" font-size="18" font-weight="800" letter-spacing="5" fill="#0D78F6">LAYLUX</text><text x="2" y="202" font-family="PingFang SC, Microsoft YaHei, sans-serif" font-size="18" fill="#5D6E8B">层层可见 · 快速预览</text><text x="2" y="237" font-family="PingFang SC, Microsoft YaHei, sans-serif" font-size="14" fill="#8A98B1">弧角主骨架 · 喷嘴 / 层纹 / 打印平台 · 极简负空间</text></g><g transform="translate(798 178) scale(.112)"><path d="M58 103c90 89 246 112 367 32 11-7 21-15 31-23-22 82-91 139-178 150-99 12-184-35-220-159Z" fill="#112A5C"/>
      <path d="M218 223h76l-15 54-23 20-23-20Z" fill="#112A5C"/>
      <path d="M211 318h90" stroke="#112A5C" stroke-width="24" stroke-linecap="round"/>
      <path d="M175 365h162" stroke="#112A5C" stroke-width="27" stroke-linecap="round" opacity=".9"/>
      <path d="M137 416h238" stroke="#112A5C" stroke-width="31" stroke-linecap="round" opacity=".78"/></g><text x="842" y="251" text-anchor="middle" font-family="Inter, Arial, sans-serif" font-size="10" font-weight="700" letter-spacing="2" fill="#A0ADC0">MONO</text></g><g transform="translate(1034 1488)"><defs><linearGradient id="v4g9" x1="0" y1="0" x2="1" y2="1"><stop stop-color="#1870F7"/><stop offset="1" stop-color="#28C7F2"/></linearGradient><linearGradient id="v4g92" x1="1" y1="0" x2="0" y2="1"><stop stop-color="#6E5DF7"/><stop offset="1" stop-color="#28C7F2"/></linearGradient></defs><rect width="900" height="276" rx="26" fill="#fff" stroke="#DDE8F6" stroke-width="2"/><path d="M1 26Q1 1 26 1H874Q899 1 899 26" fill="none" stroke="url(#v4g9)" stroke-width="6"/><g transform="translate(44 38) scale(.36)"><path d="M58 103c90 89 246 112 367 32 11-7 21-15 31-23-22 82-91 139-178 150-99 12-184-35-220-159Z" fill="url(#v4g9)"/>
      <path d="m256 237 70 40-70 41-70-41Z" fill="url(#v4g92)"/>
      <path d="m186 277 70 41v83l-70-41Zm140 0-70 41v83l70-41Z" fill="url(#v4g9)"/>
      <path d="M141 432h230" stroke="#6E5DF7" stroke-width="31" stroke-linecap="round"/>
      <path d="M244 198h24v46h-24Z" fill="#6E5DF7"/></g><g transform="translate(270 0)"><rect x="0" y="29" width="82" height="30" rx="15" fill="#EEEAFE"/><text x="41" y="50" text-anchor="middle" font-family="PingFang SC, Microsoft YaHei, sans-serif" font-size="14" font-weight="700" fill="#6759E7">两字名</text><text x="0" y="118" font-family="PingFang SC, Microsoft YaHei, sans-serif" font-size="46" font-weight="760" letter-spacing="3" fill="#11213F">造域</text><text x="2" y="159" font-family="Inter, Arial, sans-serif" font-size="18" font-weight="800" letter-spacing="5" fill="#1870F7">FORMVERSE</text><text x="2" y="202" font-family="PingFang SC, Microsoft YaHei, sans-serif" font-size="18" fill="#5D6E8B">模型创作 · 开放宇宙</text><text x="2" y="237" font-family="PingFang SC, Microsoft YaHei, sans-serif" font-size="14" fill="#8A98B1">弧角主骨架 · 喷嘴 / 层纹 / 打印平台 · 极简负空间</text></g><g transform="translate(798 178) scale(.112)"><path d="M58 103c90 89 246 112 367 32 11-7 21-15 31-23-22 82-91 139-178 150-99 12-184-35-220-159Z" fill="#112A5C"/>
      <path d="m256 237 70 40-70 41-70-41Z" fill="#112A5C"/>
      <path d="m186 277 70 41v83l-70-41Zm140 0-70 41v83l70-41Z" fill="#112A5C"/>
      <path d="M141 432h230" stroke="#112A5C" stroke-width="31" stroke-linecap="round"/>
      <path d="M244 198h24v46h-24Z" fill="#112A5C"/></g><text x="842" y="251" text-anchor="middle" font-family="Inter, Arial, sans-serif" font-size="10" font-weight="700" letter-spacing="2" fill="#A0ADC0">MONO</text></g><path d="M70 1819H1930" stroke="#D8E5F4" stroke-width="2"/><text x="70" y="1855" font-family="PingFang SC, Microsoft YaHei, sans-serif" font-size="15" fill="#74839C">第四轮：减少装饰图形，以一个主弧角 + 一个制造动作构成品牌记忆点</text><text x="1930" y="1855" text-anchor="end" font-family="Inter, Arial, sans-serif" font-size="14" font-weight="700" letter-spacing="3" fill="#8A98AD">SIMPLE · PRINTABLE · OWNABLE</text></svg>